<svg width="806.0375px" height="220.4px" xmlns="http://www.w3.org/2000/svg" viewBox="-153.01875 -35.2 806.0375 220.4" style="background: rgba(0, 0, 0, 0);" preserveAspectRatio="xMidYMid"><defs><linearGradient id="editing-shiny-gradient" x1="0.04322727117869957" x2="0.9567727288213004" y1="0.2966316784620999" y2="0.7033683215379001" gradientUnits="objectBoundingBox"><stop offset="0.0" stop-color="#ffb200"></stop><stop offset="0.5" stop-color="#e10057"></stop><stop offset="1.0" stop-color="#5A1A80"></stop></linearGradient><linearGradient id="editing-shiny-gradient2" x1="0" x2="0" y1="0" y2="1"><stop offset="0.2" stop-color="#fff" stop-opacity="0.8"></stop><stop offset="0.8" stop-color="#fff" stop-opacity="0"></stop></linearGradient><filter id="editing-shiny2" x="-100%" y="-100%" width="300%" height="300%"><feMorphology operator="erode" radius="2"></feMorphology></filter><filter id="editing-shiny" x="-100%" y="-100%" width="300%" height="300%"><feFlood flood-color="#fff" result="flood"></feFlood><feConvolveMatrix in="SourceGraphic" result="conv" order="8,8" divisor="1" kernelMatrix="0 0 0 0 0 0 0 0 0 0 0 1 1 0 0 0 0 0 0 1 1 0 0 0 0 0 1 0 0 1 0 0 0 0 1 0 0 1 0 0 0 1 0 0 0 0 1 0 0 1 1 0 0 1 1 0 0 0 0 1 1 0 0 0 "></feConvolveMatrix><feOffset dx="0" dy="4" in="conv" result="offset"></feOffset><feComposite operator="in" in="flood" in2="offset" result="comp"></feComposite><feGaussianBlur in="offset" stdDeviation="3" result="shadow"></feGaussianBlur><feColorMatrix in="shadow" type="matrix" values="0.7 0 0 0 0  0 0.7 0 0 0  0 0 0.7 0 0  0 0 0 0.3 0" result="dark-shadow"></feColorMatrix><feOffset dx="0" dy="4" in="dark-shadow" result="offset-shadow"></feOffset><feOffset dx="0" dy="2" in="conv" result="offset-2"></feOffset><feComposite operator="out" in="offset" in2="offset-2" result="edge-diff"></feComposite><feGaussianBlur in="edge-diff" stdDeviation="1" result="edge-blur"></feGaussianBlur><feColorMatrix in="edge-blur" result="edge-shadow" type="matrix" values="0 0 0 0 0  0 0 0 0 0  0 0 0 0 0  0 0 0 0.5 0"></feColorMatrix><feComposite operator="in" in="edge-shadow" in2="offset" result="edge-shadow-in"></feComposite><feOffset dx="0" dy="1" in="edge-shadow-in" result="edge-shadow-final"></feOffset><feMerge result="out"><feMergeNode in="offset-shadow"></feMergeNode><feMergeNode in="comp"></feMergeNode><feMergeNode in="edge-shadow-final"></feMergeNode><feMergeNode in="SourceGraphic"></feMergeNode></feMerge></filter></defs><g filter="url(#editing-shiny)"><g transform="translate(-35.45002639293671, 133.65499997138977)"><path d="M51.41-84.04L51.41-84.04L51.41-84.04Q82.28-84.04 82.28-62.24L82.28-62.24L82.28-62.24Q82.28-50.27 74.59-43.09L74.59-43.09L74.59-43.09Q67.03-35.91 53.80-35.91L53.80-35.91L53.80-35.91Q47.63-35.91 42.84-39.44L42.84-39.44L42.84-39.44Q40.57-40.95 39.06-42.97L39.06-42.97L39.06-42.97Q48.26-42.97 53.11-48.57L53.11-48.57L53.11-48.57Q57.96-54.18 57.96-65.14L57.96-65.14L57.96-65.14Q57.96-76.10 47.12-76.10L47.12-76.10L44.10-76.10L44.10-76.10Q43.34-76.10 42.71-75.98L42.71-75.98L28.22 0L0.88 0L16.38-82.53L16.38-82.53Q29.86-83.79 37.67-83.92L37.67-83.92L37.67-83.92Q45.49-84.04 51.41-84.04ZM88.39-3.78L88.39-3.78L88.39-3.78Q85.43-7.06 84.11-12.22L84.11-12.22L84.11-12.22Q82.78-17.39 82.78-25.83L82.78-25.83L82.78-25.83Q82.78-34.27 85.68-41.96L85.68-41.96L85.68-41.96Q88.58-49.64 93.87-55.19L93.87-55.19L93.87-55.19Q104.71-66.78 122.60-66.78L122.60-66.78L122.60-66.78Q129.02-66.78 133.69-64.64L133.69-64.64L155.23-66.78L145.91-17.64L145.91-17.64Q145.53-16.13 145.53-13.36L145.53-13.36L145.53-13.36Q145.53-10.58 147.23-8.82L147.23-8.82L147.23-8.82Q148.93-7.06 151.45-6.80L151.45-6.80L151.45-6.80Q150.19-2.52 145.59 0L145.59 0L145.59 0Q140.99 2.52 135.83 2.52L135.83 2.52L135.83 2.52Q130.66 2.52 127.20 0.57L127.20 0.57L127.20 0.57Q123.73-1.39 122.72-4.66L122.72-4.66L122.72-4.66Q120.71-1.51 116.42 0.50L116.42 0.50L116.42 0.50Q112.14 2.52 106.41 2.52L106.41 2.52L106.41 2.52Q100.67 2.52 96.01 1.01L96.01 1.01L96.01 1.01Q91.35-0.50 88.39-3.78ZM114.98-54.94L114.98-54.94L114.98-54.94Q113.53-52.67 112.27-48.83L112.27-48.83L112.27-48.83Q111.01-44.98 108.93-34.71L108.93-34.71L108.93-34.71Q106.85-24.44 106.85-17.14L106.85-17.14L106.85-17.14Q106.85-9.83 107.98-7.69L107.98-7.69L107.98-7.69Q109.12-5.54 111.13-5.54L111.13-5.54L111.13-5.54Q115.16-5.54 118.13-9.39L118.13-9.39L118.13-9.39Q121.09-13.23 122.22-20.03L122.22-20.03L128.90-56.95L128.90-56.95Q126.25-59.22 123.17-59.22L123.17-59.22L123.17-59.22Q120.08-59.22 118.25-58.21L118.25-58.21L118.25-58.21Q116.42-57.20 114.98-54.94ZM201.47-35.41L201.47-35.41L201.47-35.41Q206.01-43.47 206.01-51.66L206.01-51.66L206.01-51.66Q206.01-57.08 202.10-57.08L202.10-57.08L202.10-57.08Q199.08-57.08 195.93-51.91L195.93-51.91L195.93-51.91Q192.65-46.75 191.65-40.07L191.65-40.07L185.09 0L159.01 2.52L171.86-64.26L192.65-66.78L190.39-54.05L190.39-54.05Q196.56-66.78 210.42-66.78L210.42-66.78L210.42-66.78Q217.73-66.78 221.70-63L221.70-63L221.70-63Q225.67-59.22 225.67-51.47L225.67-51.47L225.67-51.47Q225.67-43.72 220.56-38.81L220.56-38.81L220.56-38.81Q215.46-33.89 206.77-33.89L206.77-33.89L206.77-33.89Q202.99-33.89 201.47-35.41ZM257.92-6.93L257.92-6.93L257.92-6.93Q254.02 2.52 241.54 2.52L241.54 2.52L241.54 2.52Q235.12 2.52 231.08-1.89L231.08-1.89L231.08-1.89Q227.68-5.80 227.68-9.70L227.68-9.70L227.68-9.70Q227.68-19.91 232.34-39.82L232.34-39.82L237.01-64.26L262.58-66.78L254.90-26.96L254.90-26.96Q252.76-17.64 252.76-14.36L252.76-14.36L252.76-14.36Q252.76-7.18 257.92-6.93ZM239.27-81.77L239.27-81.77L239.27-81.77Q239.27-86.69 243.37-89.33L243.37-89.33L243.37-89.33Q247.46-91.98 253.39-91.98L253.39-91.98L253.39-91.98Q259.31-91.98 262.90-89.33L262.90-89.33L262.90-89.33Q266.49-86.69 266.49-81.77L266.49-81.77L266.49-81.77Q266.49-76.86 262.52-74.34L262.52-74.34L262.52-74.34Q258.55-71.82 252.63-71.82L252.63-71.82L252.63-71.82Q246.71-71.82 242.99-74.34L242.99-74.34L242.99-74.34Q239.27-76.86 239.27-81.77ZM277.58-52.67L277.58-52.67L277.58-52.67Q281.86-58.72 288.35-62.75L288.35-62.75L288.35-62.75Q294.84-66.78 302.78-66.78L302.78-66.78L302.78-66.78Q310.72-66.78 314.50-64.26L314.50-64.26L339.19-66.78L330.62-18.40L330.62-18.40Q326.21 6.30 316.89 16.00L316.89 16.00L316.89 16.00Q307.94 25.20 290.56 25.20L290.56 25.20L290.56 25.20Q277.33 25.20 269.77 21.04L269.77 21.04L269.77 21.04Q262.21 16.88 262.21 9.95L262.21 9.95L262.21 9.95Q262.21 4.79 266.11 1.83L266.11 1.83L266.11 1.83Q270.02-1.13 276.07-1.13L276.07-1.13L276.07-1.13Q281.36-1.13 285.39 1.26L285.39 1.26L285.39 1.26Q287.78 2.52 288.92 4.28L288.92 4.28L288.92 4.28Q286.02 6.80 286.02 10.96L286.02 10.96L286.02 10.96Q286.02 16.38 291.06 16.38L291.06 16.38L291.06 16.38Q299.50 16.38 304.29-3.53L304.29-3.53L304.29-3.53Q305.68-8.95 306.81-14.36L306.81-14.36L306.81-14.36Q301.14-7.43 288.29-7.43L288.29-7.43L288.29-7.43Q279.34-7.43 274.18-11.72L274.18-11.72L274.18-11.72Q269.01-16.00 269.01-26.08L269.01-26.08L269.01-26.08Q269.01-32.38 271.15-39.50L271.15-39.50L271.15-39.50Q273.29-46.62 277.58-52.67ZM293.96-25.70L293.96-25.70L293.96-25.70Q293.96-17.14 298.37-17.14L298.37-17.14L298.37-17.14Q301.39-17.14 304.29-20.41L304.29-20.41L304.29-20.41Q306.56-23.06 307.44-26.96L307.44-26.96L313.87-59.35L313.87-59.35Q313.24-59.47 312.61-59.72L312.61-59.72L312.61-59.72Q311.35-60.23 309.71-60.23L309.71-60.23L309.71-60.23Q302.02-60.23 297.49-47.63L297.49-47.63L297.49-47.63Q293.96-37.80 293.96-25.70ZM384.17-14.24L384.17-14.24L384.17-14.24Q377.62-7.43 365.65-7.43L365.65-7.43L365.65-7.43Q350.66-7.43 347.51-18.40L347.51-18.40L347.51-18.40Q346.50-21.67 346.50-25.33L346.50-25.33L346.50-25.33Q346.50-28.98 347.26-32.76L347.26-32.76L353.18-64.26L378.76-66.78L371.83-30.11L371.83-30.11Q371.57-28.48 371.20-26.71L371.20-26.71L371.20-26.71Q370.82-24.95 370.82-23.12L370.82-23.12L370.82-23.12Q370.82-21.29 371.45-20.10L371.45-20.10L371.45-20.10Q372.08-18.90 372.96-18.14L372.96-18.14L372.96-18.14Q374.47-17.14 377.18-17.14L377.18-17.14L377.18-17.14Q379.89-17.14 382.22-20.41L382.22-20.41L382.22-20.41Q384.55-23.69 385.69-29.36L385.69-29.36L392.62-64.26L417.44-66.78L407.99-17.26L407.99-17.26Q403.33 6.93 393.75 16.51L393.75 16.51L393.75 16.51Q388.84 21.42 382.47 23.37L382.47 23.37L382.47 23.37Q376.11 25.33 367.92 25.33L367.92 25.33L367.92 25.33Q354.69 25.33 347.13 21.17L347.13 21.17L347.13 21.17Q339.57 17.01 339.57 10.08L339.57 10.08L339.57 10.08Q339.57 4.91 343.48 1.95L343.48 1.95L343.48 1.95Q347.38-1.01 353.43-1.01L353.43-1.01L353.43-1.01Q358.72-1.01 362.75 1.26L362.75 1.26L362.75 1.26Q365.15 2.65 366.28 4.41L366.28 4.41L366.28 4.41Q363.38 6.93 363.38 11.09L363.38 11.09L363.38 11.09Q363.38 16.63 368.42 16.63L368.42 16.63L368.42 16.63Q376.74 16.63 381.53-2.52L381.53-2.52L381.53-2.52Q382.91-8.19 384.17-14.24ZM427.45-3.78L427.45-3.78L427.45-3.78Q424.49-7.06 423.17-12.22L423.17-12.22L423.17-12.22Q421.85-17.39 421.85-25.83L421.85-25.83L421.85-25.83Q421.85-34.27 424.75-41.96L424.75-41.96L424.75-41.96Q427.64-49.64 432.94-55.19L432.94-55.19L432.94-55.19Q443.77-66.78 461.66-66.78L461.66-66.78L461.66-66.78Q468.09-66.78 472.75-64.64L472.75-64.64L494.30-66.78L484.97-17.64L484.97-17.64Q484.60-16.13 484.60-13.36L484.60-13.36L484.60-13.36Q484.60-10.58 486.30-8.82L486.30-8.82L486.30-8.82Q488.00-7.06 490.52-6.80L490.52-6.80L490.52-6.80Q489.26-2.52 484.66 0L484.66 0L484.66 0Q480.06 2.52 474.89 2.52L474.89 2.52L474.89 2.52Q469.73 2.52 466.26 0.57L466.26 0.57L466.26 0.57Q462.80-1.39 461.79-4.66L461.79-4.66L461.79-4.66Q459.77-1.51 455.49 0.50L455.49 0.50L455.49 0.50Q451.21 2.52 445.47 2.52L445.47 2.52L445.47 2.52Q439.74 2.52 435.08 1.01L435.08 1.01L435.08 1.01Q430.42-0.50 427.45-3.78ZM454.04-54.94L454.04-54.94L454.04-54.94Q452.59-52.67 451.33-48.83L451.33-48.83L451.33-48.83Q450.07-44.98 447.99-34.71L447.99-34.71L447.99-34.71Q445.91-24.44 445.91-17.14L445.91-17.14L445.91-17.14Q445.91-9.83 447.05-7.69L447.05-7.69L447.05-7.69Q448.18-5.54 450.20-5.54L450.20-5.54L450.20-5.54Q454.23-5.54 457.19-9.39L457.19-9.39L457.19-9.39Q460.15-13.23 461.29-20.03L461.29-20.03L467.96-56.95L467.96-56.95Q465.32-59.22 462.23-59.22L462.23-59.22L462.23-59.22Q459.14-59.22 457.32-58.21L457.32-58.21L457.32-58.21Q455.49-57.20 454.04-54.94ZM554.40 2.52L554.40 2.52L554.40 2.52Q539.15 2.52 539.15-9.32L539.15-9.32L539.15-9.32Q539.28-12.60 540.29-18.14L540.29-18.14L542.56-29.74L542.56-29.74Q545.96-46.12 545.96-49.77L545.96-49.77L545.96-49.77Q545.96-57.08 541.67-57.08L541.67-57.08L541.67-57.08Q534.49-57.08 530.71-38.30L530.71-38.30L523.28 0L497.95 2.52L511.06-64.39L531.72-66.78L529.70-54.43L529.70-54.43Q535.63-66.78 553.77-66.78L553.77-66.78L553.77-66.78Q562.59-66.78 566.31-63.06L566.31-63.06L566.31-63.06Q570.02-59.35 570.02-51.03L570.02-51.03L570.02-51.03Q570.02-43.22 565.99-24.95L565.99-24.95L565.99-24.95Q564.10-16.76 564.10-13.67L564.10-13.67L564.10-13.67Q564.10-10.58 565.80-8.82L565.80-8.82L565.80-8.82Q567.50-7.06 570.02-6.80L570.02-6.80L570.02-6.80Q568.76-2.52 564.42 0L564.42 0L564.42 0Q560.07 2.52 554.40 2.52Z" fill="url(#editing-shiny-gradient)"></path></g></g><g filter="url(#editing-shiny2)"><g transform="translate(-35.44998824596405, 133.6550052165985)"><path d="M51.41-84.04L51.41-84.04L51.41-84.04Q82.28-84.04 82.28-62.24L82.28-62.24L82.28-62.24Q82.28-50.27 74.59-43.09L74.59-43.09L74.59-43.09Q67.03-35.91 53.80-35.91L53.80-35.91L53.80-35.91Q47.63-35.91 42.84-39.44L42.84-39.44L42.84-39.44Q40.57-40.95 39.06-42.97L39.06-42.97L39.06-42.97Q48.26-42.97 53.11-48.57L53.11-48.57L53.11-48.57Q57.96-54.18 57.96-65.14L57.96-65.14L57.96-65.14Q57.96-76.10 47.12-76.10L47.12-76.10L44.10-76.10L44.10-76.10Q43.34-76.10 42.71-75.98L42.71-75.98L28.22 0L0.88 0L16.38-82.53L16.38-82.53Q29.86-83.79 37.67-83.92L37.67-83.92L37.67-83.92Q45.49-84.04 51.41-84.04ZM88.39-3.78L88.39-3.78L88.39-3.78Q85.43-7.06 84.11-12.22L84.11-12.22L84.11-12.22Q82.78-17.39 82.78-25.83L82.78-25.83L82.78-25.83Q82.78-34.27 85.68-41.96L85.68-41.96L85.68-41.96Q88.58-49.64 93.87-55.19L93.87-55.19L93.87-55.19Q104.71-66.78 122.60-66.78L122.60-66.78L122.60-66.78Q129.02-66.78 133.69-64.64L133.69-64.64L155.23-66.78L145.91-17.64L145.91-17.64Q145.53-16.13 145.53-13.36L145.53-13.36L145.53-13.36Q145.53-10.58 147.23-8.82L147.23-8.82L147.23-8.82Q148.93-7.06 151.45-6.80L151.45-6.80L151.45-6.80Q150.19-2.52 145.59 0L145.59 0L145.59 0Q140.99 2.52 135.83 2.52L135.83 2.52L135.83 2.52Q130.66 2.52 127.20 0.57L127.20 0.57L127.20 0.57Q123.73-1.39 122.72-4.66L122.72-4.66L122.72-4.66Q120.71-1.51 116.42 0.50L116.42 0.50L116.42 0.50Q112.14 2.52 106.41 2.52L106.41 2.52L106.41 2.52Q100.67 2.52 96.01 1.01L96.01 1.01L96.01 1.01Q91.35-0.50 88.39-3.78ZM114.98-54.94L114.98-54.94L114.98-54.94Q113.53-52.67 112.27-48.83L112.27-48.83L112.27-48.83Q111.01-44.98 108.93-34.71L108.93-34.71L108.93-34.71Q106.85-24.44 106.85-17.14L106.85-17.14L106.85-17.14Q106.85-9.83 107.98-7.69L107.98-7.69L107.98-7.69Q109.12-5.54 111.13-5.54L111.13-5.54L111.13-5.54Q115.16-5.54 118.13-9.39L118.13-9.39L118.13-9.39Q121.09-13.23 122.22-20.03L122.22-20.03L128.90-56.95L128.90-56.95Q126.25-59.22 123.17-59.22L123.17-59.22L123.17-59.22Q120.08-59.22 118.25-58.21L118.25-58.21L118.25-58.21Q116.42-57.20 114.98-54.94ZM201.47-35.41L201.47-35.41L201.47-35.41Q206.01-43.47 206.01-51.66L206.01-51.66L206.01-51.66Q206.01-57.08 202.10-57.08L202.10-57.08L202.10-57.08Q199.08-57.08 195.93-51.91L195.93-51.91L195.93-51.91Q192.65-46.75 191.65-40.07L191.65-40.07L185.09 0L159.01 2.52L171.86-64.26L192.65-66.78L190.39-54.05L190.39-54.05Q196.56-66.78 210.42-66.78L210.42-66.78L210.42-66.78Q217.73-66.78 221.70-63L221.70-63L221.70-63Q225.67-59.22 225.67-51.47L225.67-51.47L225.67-51.47Q225.67-43.72 220.56-38.81L220.56-38.81L220.56-38.81Q215.46-33.89 206.77-33.89L206.77-33.89L206.77-33.89Q202.99-33.89 201.47-35.41ZM257.92-6.93L257.92-6.93L257.92-6.93Q254.02 2.52 241.54 2.52L241.54 2.52L241.54 2.52Q235.12 2.52 231.08-1.89L231.08-1.89L231.08-1.89Q227.68-5.80 227.68-9.70L227.68-9.70L227.68-9.70Q227.68-19.91 232.34-39.82L232.34-39.82L237.01-64.26L262.58-66.78L254.90-26.96L254.90-26.96Q252.76-17.64 252.76-14.36L252.76-14.36L252.76-14.36Q252.76-7.18 257.92-6.93ZM239.27-81.77L239.27-81.77L239.27-81.77Q239.27-86.69 243.37-89.33L243.37-89.33L243.37-89.33Q247.46-91.98 253.39-91.98L253.39-91.98L253.39-91.98Q259.31-91.98 262.90-89.33L262.90-89.33L262.90-89.33Q266.49-86.69 266.49-81.77L266.49-81.77L266.49-81.77Q266.49-76.86 262.52-74.34L262.52-74.34L262.52-74.34Q258.55-71.82 252.63-71.82L252.63-71.82L252.63-71.82Q246.71-71.82 242.99-74.34L242.99-74.34L242.99-74.34Q239.27-76.86 239.27-81.77ZM277.58-52.67L277.58-52.67L277.58-52.67Q281.86-58.72 288.35-62.75L288.35-62.75L288.35-62.75Q294.84-66.78 302.78-66.78L302.78-66.78L302.78-66.78Q310.72-66.78 314.50-64.26L314.50-64.26L339.19-66.78L330.62-18.40L330.62-18.40Q326.21 6.30 316.89 16.00L316.89 16.00L316.89 16.00Q307.94 25.20 290.56 25.20L290.56 25.20L290.56 25.20Q277.33 25.20 269.77 21.04L269.77 21.04L269.77 21.04Q262.21 16.88 262.21 9.95L262.21 9.95L262.21 9.95Q262.21 4.79 266.11 1.83L266.11 1.83L266.11 1.83Q270.02-1.13 276.07-1.13L276.07-1.13L276.07-1.13Q281.36-1.13 285.39 1.26L285.39 1.26L285.39 1.26Q287.78 2.52 288.92 4.28L288.92 4.28L288.92 4.28Q286.02 6.80 286.02 10.96L286.02 10.96L286.02 10.96Q286.02 16.38 291.06 16.38L291.06 16.38L291.06 16.38Q299.50 16.38 304.29-3.53L304.29-3.53L304.29-3.53Q305.68-8.95 306.81-14.36L306.81-14.36L306.81-14.36Q301.14-7.43 288.29-7.43L288.29-7.43L288.29-7.43Q279.34-7.43 274.18-11.72L274.18-11.72L274.18-11.72Q269.01-16.00 269.01-26.08L269.01-26.08L269.01-26.08Q269.01-32.38 271.15-39.50L271.15-39.50L271.15-39.50Q273.29-46.62 277.58-52.67ZM293.96-25.70L293.96-25.70L293.96-25.70Q293.96-17.14 298.37-17.14L298.37-17.14L298.37-17.14Q301.39-17.14 304.29-20.41L304.29-20.41L304.29-20.41Q306.56-23.06 307.44-26.96L307.44-26.96L313.87-59.35L313.87-59.35Q313.24-59.47 312.61-59.72L312.61-59.72L312.61-59.72Q311.35-60.23 309.71-60.23L309.71-60.23L309.71-60.23Q302.02-60.23 297.49-47.63L297.49-47.63L297.49-47.63Q293.96-37.80 293.96-25.70ZM384.17-14.24L384.17-14.24L384.17-14.24Q377.62-7.43 365.65-7.43L365.65-7.43L365.65-7.43Q350.66-7.43 347.51-18.40L347.51-18.40L347.51-18.40Q346.50-21.67 346.50-25.33L346.50-25.33L346.50-25.33Q346.50-28.98 347.26-32.76L347.26-32.76L353.18-64.26L378.76-66.78L371.83-30.11L371.83-30.11Q371.57-28.48 371.20-26.71L371.20-26.71L371.20-26.71Q370.82-24.95 370.82-23.12L370.82-23.12L370.82-23.12Q370.82-21.29 371.45-20.10L371.45-20.10L371.45-20.10Q372.08-18.90 372.96-18.14L372.96-18.14L372.96-18.14Q374.47-17.14 377.18-17.14L377.18-17.14L377.18-17.14Q379.89-17.14 382.22-20.41L382.22-20.41L382.22-20.41Q384.55-23.69 385.69-29.36L385.69-29.36L392.62-64.26L417.44-66.78L407.99-17.26L407.99-17.26Q403.33 6.93 393.75 16.51L393.75 16.51L393.75 16.51Q388.84 21.42 382.47 23.37L382.47 23.37L382.47 23.37Q376.11 25.33 367.92 25.33L367.92 25.33L367.92 25.33Q354.69 25.33 347.13 21.17L347.13 21.17L347.13 21.17Q339.57 17.01 339.57 10.08L339.57 10.08L339.57 10.08Q339.57 4.91 343.48 1.95L343.48 1.95L343.48 1.95Q347.38-1.01 353.43-1.01L353.43-1.01L353.43-1.01Q358.72-1.01 362.75 1.26L362.75 1.26L362.75 1.26Q365.15 2.65 366.28 4.41L366.28 4.41L366.28 4.41Q363.38 6.93 363.38 11.09L363.38 11.09L363.38 11.09Q363.38 16.63 368.42 16.63L368.42 16.63L368.42 16.63Q376.74 16.63 381.53-2.52L381.53-2.52L381.53-2.52Q382.91-8.19 384.17-14.24ZM427.45-3.78L427.45-3.78L427.45-3.78Q424.49-7.06 423.17-12.22L423.17-12.22L423.17-12.22Q421.85-17.39 421.85-25.83L421.85-25.83L421.85-25.83Q421.85-34.27 424.75-41.96L424.75-41.96L424.75-41.96Q427.64-49.64 432.94-55.19L432.94-55.19L432.94-55.19Q443.77-66.78 461.66-66.78L461.66-66.78L461.66-66.78Q468.09-66.78 472.75-64.64L472.75-64.64L494.30-66.78L484.97-17.64L484.97-17.64Q484.60-16.13 484.60-13.36L484.60-13.36L484.60-13.36Q484.60-10.58 486.30-8.82L486.30-8.82L486.30-8.82Q488.00-7.06 490.52-6.80L490.52-6.80L490.52-6.80Q489.26-2.52 484.66 0L484.66 0L484.66 0Q480.06 2.52 474.89 2.52L474.89 2.52L474.89 2.52Q469.73 2.52 466.26 0.57L466.26 0.57L466.26 0.57Q462.80-1.39 461.79-4.66L461.79-4.66L461.79-4.66Q459.77-1.51 455.49 0.50L455.49 0.50L455.49 0.50Q451.21 2.52 445.47 2.52L445.47 2.52L445.47 2.52Q439.74 2.52 435.08 1.01L435.08 1.01L435.08 1.01Q430.42-0.50 427.45-3.78ZM454.04-54.94L454.04-54.94L454.04-54.94Q452.59-52.67 451.33-48.83L451.33-48.83L451.33-48.83Q450.07-44.98 447.99-34.71L447.99-34.71L447.99-34.71Q445.91-24.44 445.91-17.14L445.91-17.14L445.91-17.14Q445.91-9.83 447.05-7.69L447.05-7.69L447.05-7.69Q448.18-5.54 450.20-5.54L450.20-5.54L450.20-5.54Q454.23-5.54 457.19-9.39L457.19-9.39L457.19-9.39Q460.15-13.23 461.29-20.03L461.29-20.03L467.96-56.95L467.96-56.95Q465.32-59.22 462.23-59.22L462.23-59.22L462.23-59.22Q459.14-59.22 457.32-58.21L457.32-58.21L457.32-58.21Q455.49-57.20 454.04-54.94ZM554.40 2.52L554.40 2.52L554.40 2.52Q539.15 2.52 539.15-9.32L539.15-9.32L539.15-9.32Q539.28-12.60 540.29-18.14L540.29-18.14L542.56-29.74L542.56-29.74Q545.96-46.12 545.96-49.77L545.96-49.77L545.96-49.77Q545.96-57.08 541.67-57.08L541.67-57.08L541.67-57.08Q534.49-57.08 530.71-38.30L530.71-38.30L523.28 0L497.95 2.52L511.06-64.39L531.72-66.78L529.70-54.43L529.70-54.43Q535.63-66.78 553.77-66.78L553.77-66.78L553.77-66.78Q562.59-66.78 566.31-63.06L566.31-63.06L566.31-63.06Q570.02-59.35 570.02-51.03L570.02-51.03L570.02-51.03Q570.02-43.22 565.99-24.95L565.99-24.95L565.99-24.95Q564.10-16.76 564.10-13.67L564.10-13.67L564.10-13.67Q564.10-10.58 565.80-8.82L565.80-8.82L565.80-8.82Q567.50-7.06 570.02-6.80L570.02-6.80L570.02-6.80Q568.76-2.52 564.42 0L564.42 0L564.42 0Q560.07 2.52 554.40 2.52Z" fill="url(#editing-shiny-gradient2)"></path></g></g><style>text {
  font-size: 64px;
  font-family: Arial Black;
  dominant-baseline: central;
  text-anchor: middle;
}</style></svg>